<svg version="1.1" id="Layer_1" xmlns="http://www.w3.org/2000/svg" xmlns:xlink="http://www.w3.org/1999/xlink" x="0px" y="0px"
	 width="100%" viewBox="0 0 2667 2667" enable-background="new 0 0 2667 2667" xml:space="preserve">
<path fill="#fff" opacity="1.000000" stroke="none" 
	d="
M1770.000000,2670.000000 
	C1180.000000,2670.000000 591.000000,2670.000000 2.000000,2670.000000 
	C2.000000,1780.666626 2.000000,891.333313 2.000000,2.000000 
	C891.333313,2.000000 1780.666626,2.000000 2670.000000,2.000000 
	C2670.000000,891.333313 2670.000000,1780.666626 2670.000000,2670.000000 
	C2370.333252,2670.000000 2070.666748,2670.000000 1770.000000,2670.000000 
M1149.931763,2030.862671 
	C1150.582764,2033.440918 1151.216309,2036.023804 1151.887329,2038.596924 
	C1163.807251,2084.309326 1186.766724,2123.507080 1223.508911,2153.345215 
	C1278.071289,2197.655273 1339.551514,2209.822266 1406.879639,2188.333740 
	C1485.580444,2163.215576 1546.353760,2088.247314 1549.460083,1997.078003 
	C1551.261719,1944.196777 1551.577271,1891.244873 1551.548828,1838.325439 
	C1551.486328,1722.052856 1550.483276,1605.780884 1550.397095,1489.508301 
	C1550.204102,1229.188354 1550.317383,968.868103 1550.369629,708.547974 
	C1550.374390,684.913513 1548.895874,661.461060 1543.865356,638.310547 
	C1535.002930,597.524597 1517.725098,560.971558 1488.505249,530.780518 
	C1448.479248,489.424377 1398.457764,472.052399 1341.920166,472.371460 
	C1326.803101,472.456757 1311.479126,474.945282 1296.640137,478.141296 
	C1246.380005,488.966339 1207.687866,516.749207 1180.405396,560.283508 
	C1155.355835,600.254700 1144.667480,644.691284 1144.586182,691.072449 
	C1143.915283,1074.036621 1143.876099,1457.001831 1143.693237,1839.966797 
	C1143.683838,1859.610107 1144.227173,1879.253052 1144.304810,1898.897095 
	C1144.415405,1926.895142 1143.731934,1954.912231 1144.570435,1982.885620 
	C1145.034058,1998.352905 1147.908813,2013.747803 1149.931763,2030.862671 
M1586.332520,1547.489136 
	C1586.332520,1764.050171 1586.332520,1980.611084 1586.332520,2197.631836 
	C1722.004272,2197.631836 1856.803101,2197.631836 1992.128174,2197.631836 
	C1992.209106,2195.969971 1992.310669,2194.715332 1992.325562,2193.459717 
	C1992.778076,2155.525146 1993.655396,2117.590088 1993.591797,2079.656494 
	C1993.328857,1922.729370 1992.802368,1765.802490 1992.318848,1608.875854 
	C1992.225464,1578.559692 1992.304932,1548.232910 1991.475220,1517.933716 
	C1991.114014,1504.743896 1989.844482,1491.343750 1986.946777,1478.499512 
	C1974.792725,1424.626099 1945.761108,1381.709961 1900.278687,1350.359375 
	C1855.756958,1319.670898 1806.452637,1308.681641 1753.259644,1318.347168 
	C1711.041382,1326.018311 1675.780396,1346.924805 1646.640625,1378.433105 
	C1614.966309,1412.681763 1596.171387,1452.993774 1589.827759,1499.005249 
	C1587.705078,1514.401855 1587.444580,1530.055176 1586.332520,1547.489136 
M679.664185,858.999878 
	C679.897705,1017.151672 680.131165,1175.303467 680.364807,1333.551025 
	C816.239258,1333.551025 951.028137,1333.551025 1086.335693,1333.551025 
	C1086.335693,1329.069214 1086.339600,1325.123413 1086.335205,1321.177612 
	C1086.112671,1115.925049 1085.909668,910.672546 1085.610962,705.420044 
	C1085.594604,694.153625 1085.063232,682.868896 1084.286987,671.626160 
	C1081.803589,635.652161 1072.030029,601.754028 1054.043091,570.445374 
	C1032.141479,532.322937 1001.170898,504.251526 960.253601,487.590942 
	C916.958130,469.961975 872.508301,468.102570 827.449585,479.008148 
	C790.213501,488.020416 758.808838,507.076508 733.733276,536.215515 
	C697.158569,578.717346 682.393005,629.544006 680.687622,684.107056 
	C678.887695,741.692383 679.887451,799.365173 679.664185,858.999878 
z"/>
<path fill="#5f604b" opacity="1.000000" stroke="none" 
	d="
M1149.814209,2030.019043 
	C1147.908813,2013.747803 1145.034058,1998.352905 1144.570435,1982.885620 
	C1143.731934,1954.912231 1144.415405,1926.895142 1144.304810,1898.897095 
	C1144.227173,1879.253052 1143.683838,1859.610107 1143.693237,1839.966797 
	C1143.876099,1457.001831 1143.915283,1074.036621 1144.586182,691.072449 
	C1144.667480,644.691284 1155.355835,600.254700 1180.405396,560.283508 
	C1207.687866,516.749207 1246.380005,488.966339 1296.640137,478.141296 
	C1311.479126,474.945282 1326.803101,472.456757 1341.920166,472.371460 
	C1398.457764,472.052399 1448.479248,489.424377 1488.505249,530.780518 
	C1517.725098,560.971558 1535.002930,597.524597 1543.865356,638.310547 
	C1548.895874,661.461060 1550.374390,684.913513 1550.369629,708.547974 
	C1550.317383,968.868103 1550.204102,1229.188354 1550.397095,1489.508301 
	C1550.483276,1605.780884 1551.486328,1722.052856 1551.548828,1838.325439 
	C1551.577271,1891.244873 1551.261719,1944.196777 1549.460083,1997.078003 
	C1546.353760,2088.247314 1485.580444,2163.215576 1406.879639,2188.333740 
	C1339.551514,2209.822266 1278.071289,2197.655273 1223.508911,2153.345215 
	C1186.766724,2123.507080 1163.807251,2084.309326 1151.887329,2038.596924 
	C1151.216309,2036.023804 1150.582764,2033.440918 1149.814209,2030.019043 
z"/>
<path fill="#5f604b" opacity="1.000000" stroke="none" 
	d="
M1586.332642,1546.540039 
	C1587.444580,1530.055176 1587.705078,1514.401855 1589.827759,1499.005249 
	C1596.171387,1452.993774 1614.966309,1412.681763 1646.640625,1378.433105 
	C1675.780396,1346.924805 1711.041382,1326.018311 1753.259644,1318.347168 
	C1806.452637,1308.681641 1855.756958,1319.670898 1900.278687,1350.359375 
	C1945.761108,1381.709961 1974.792725,1424.626099 1986.946777,1478.499512 
	C1989.844482,1491.343750 1991.114014,1504.743896 1991.475220,1517.933716 
	C1992.304932,1548.232910 1992.225464,1578.559692 1992.318848,1608.875854 
	C1992.802368,1765.802490 1993.328857,1922.729370 1993.591797,2079.656494 
	C1993.655396,2117.590088 1992.778076,2155.525146 1992.325562,2193.459717 
	C1992.310669,2194.715332 1992.209106,2195.969971 1992.128174,2197.631836 
	C1856.803101,2197.631836 1722.004272,2197.631836 1586.332520,2197.631836 
	C1586.332520,1980.611084 1586.332520,1764.050171 1586.332642,1546.540039 
z"/>
<path fill="#5f604b" opacity="1.000000" stroke="none" 
	d="
M679.664185,857.999817 
	C679.887451,799.365173 678.887695,741.692383 680.687622,684.107056 
	C682.393005,629.544006 697.158569,578.717346 733.733276,536.215515 
	C758.808838,507.076508 790.213501,488.020416 827.449585,479.008148 
	C872.508301,468.102570 916.958130,469.961975 960.253601,487.590942 
	C1001.170898,504.251526 1032.141479,532.322937 1054.043091,570.445374 
	C1072.030029,601.754028 1081.803589,635.652161 1084.286987,671.626160 
	C1085.063232,682.868896 1085.594604,694.153625 1085.610962,705.420044 
	C1085.909668,910.672546 1086.112671,1115.925049 1086.335205,1321.177612 
	C1086.339600,1325.123413 1086.335693,1329.069214 1086.335693,1333.551025 
	C951.028137,1333.551025 816.239258,1333.551025 680.364807,1333.551025 
	C680.131165,1175.303467 679.897705,1017.151672 679.664185,857.999817 
z"/>
</svg>