<?xml version="1.0" encoding="UTF-8"?>
<!DOCTYPE svg PUBLIC "-//W3C//DTD SVG 1.1//EN" "http://www.w3.org/Graphics/SVG/1.1/DTD/svg11.dtd">
<svg xmlns="http://www.w3.org/2000/svg" version="1.1" width="2667px" height="2667px" style="shape-rendering:geometricPrecision; text-rendering:geometricPrecision; image-rendering:optimizeQuality; fill-rule:evenodd; clip-rule:evenodd" xmlns:xlink="http://www.w3.org/1999/xlink">
<g><path style="opacity:0.997" fill="#000000" d="M 868.5,469.5 C 961.871,469.131 1027.04,511.465 1064,596.5C 1073.5,621.309 1079.16,646.976 1081,673.5C 1081.33,696.833 1081.67,720.167 1082,743.5C 1082.5,939.5 1082.67,1135.5 1082.5,1331.5C 947.167,1331.5 811.833,1331.5 676.5,1331.5C 675.19,1112.16 675.357,892.832 677,673.5C 679.29,625.293 694.29,581.626 722,542.5C 759.613,495.944 808.446,471.611 868.5,469.5 Z"/></g>
<g><path style="opacity:0.998" fill="#000000" d="M 1332.5,469.5 C 1426.89,469.077 1492.39,512.077 1529,598.5C 1539.42,626.912 1545.08,656.246 1546,686.5C 1546.31,1016.17 1546.81,1345.83 1547.5,1675.5C 1547.48,1766.17 1546.98,1856.84 1546,1947.5C 1545.85,1969.19 1545.18,1990.85 1544,2012.5C 1531.25,2093.9 1487.09,2150.73 1411.5,2183C 1324.58,2211.02 1251.08,2190.85 1191,2122.5C 1160.98,2084.47 1144.32,2041.13 1141,1992.5C 1140.68,1944 1140.18,1895.5 1139.5,1847C 1140.32,1457.5 1140.82,1068 1141,678.5C 1142.84,631.31 1156.51,587.976 1182,548.5C 1219.59,498.618 1269.76,472.284 1332.5,469.5 Z"/></g>
<g><path style="opacity:0.997" fill="#000000" d="M 1768.5,1312.5 C 1850.65,1310.48 1913.81,1343.82 1958,1412.5C 1974.45,1440.28 1984.11,1470.28 1987,1502.5C 1988.04,1539.49 1988.71,1576.49 1989,1613.5C 1989.68,1807.5 1989.51,2001.5 1988.5,2195.5C 1853.17,2195.5 1717.83,2195.5 1582.5,2195.5C 1582.33,1975.83 1582.5,1756.17 1583,1536.5C 1582.57,1458.55 1612.73,1395.71 1673.5,1348C 1702.22,1328.15 1733.89,1316.32 1768.5,1312.5 Z"/></g>
</svg>
