<svg xmlns="http://www.w3.org/2000/svg" viewBox="0 0 60 60" id="Call">
  <path d="M29.924 25.33c0 .56.45 1 1 1 1.14 0 2.06.93 2.06 2.06 0 .55.45 1 1 1s1-.45 1-1c0-2.24-1.82-4.06-4.06-4.06-.55 0-1 .45-1 1zm16.28 4.06c.56 0 1-.45 1-1 0-8.98-7.3-16.28-16.28-16.28-.55 0-1 .45-1 1s.45 1 1 1c7.88 0 14.28 6.41 14.28 14.28 0 .55.45 1 1 1z" fill="#ffffff" class="color000000 svgShape"></path>
  <path d="M39.094 28.39c0 .55.45 1 1 1s1-.45 1-1c0-5.61-4.56-10.17-10.17-10.17-.55 0-1 .45-1 1 0 .56.45 1 1 1 4.51 0 8.17 3.67 8.17 8.17zM30.924 6c-.55 0-1 .45-1 1s.45 1 1 1c11.25 0 20.4 9.15 20.4 20.39 0 .55.44 1 1 1 .55 0 1-.45 1-1 0-12.35-10.05-22.39-22.4-22.39zm9.77 32.93-1.31.71c-2.21 1.21-5.01.8-6.8-.99l-10.56-10.56c-1.79-1.79-2.2-4.59-.99-6.81l.71-1.3c.8-1.48 1.09-3.14.85-4.8a7.608 7.608 0 0 0-2.18-4.37c-1.46-1.46-3.4-2.26-5.47-2.26s-4.02.8-5.48 2.26l-.51.52c-2.7 2.7-3.01 7.35-.88 13.11 2.01 5.5 6.06 11.46 11.38 16.78C27.564 49.33 36.594 54 43.074 54c2.56 0 4.73-.73 6.27-2.27l.52-.52a7.74 7.74 0 0 0 2.27-5.48 7.855 7.855 0 0 0-2.27-5.47c-2.41-2.41-6.18-2.95-9.17-1.33z" fill="#ffffff" class="color000000 svgShape"></path>
</svg>
