<svg xmlns="http://www.w3.org/2000/svg" viewBox="0 0 1500 1500" id="OnlineProfitGrowth">
  <path fill="#ffffff" d="M239.875 204.298L203.663 204.276C198.526 204.259 190.824 203.42 190.718 196.57 190.557 186.297 199.631 186.973 206.46 186.966L223.527 186.994C223.891 183.233 223.632 179.235 223.635 175.45L223.619 154.221C223.557 142.365 222.449 135.837 236.119 135.817L279.643 135.673 279.535 124.267C279.55 112.409 279.914 106.791 292.65 106.763L334.701 106.726 334.587 101.25C334.613 93.5118 338.987 91.1509 346.167 91.1849L389.282 91.2146 389.251 70.0874C389.249 57.8618 388.287 49.4713 403.009 51.4038 405.833 51.7745 406.776 50.0491 408.74 48.1937L438.447 21.5608C442.692 17.7806 446.746 12.2985 452.352 10.552L452.733 10.5463C462.274 10.4427 463.025 18.4376 463.004 25.7516L462.983 187.006 484.223 186.961C487.772 186.96 491.792 186.547 495.253 187.235 504.465 189.066 504.319 203.767 494.515 204.385 491.849 204.553 489.1 204.346 486.423 204.341L239.875 204.298zM445.283 39.125C434.519 47.081 420.966 62.4291 410.681 67.9531 409.731 68.4638 408.094 68.6578 407.465 69.5228L407.849 186.981 445.371 186.964 445.283 39.125zM351.395 108.315L351.326 179.705C351.333 182.005 351.067 184.643 351.445 186.89L389.253 186.967 389.146 108.391 351.395 108.315zM325.248 123.97L300.047 123.975C299.22 123.974 298.25 123.864 297.473 124.139L297.478 186.88 308.125 186.955 335.441 186.967 335.492 123.957 325.248 123.97zM240.748 152.807L240.755 183.768C240.755 184.794 240.639 185.965 240.848 186.97L279.44 186.955 279.498 152.861 240.748 152.807zM111.747 201.226C106.17 201.446 100.468 201.617 94.9062 201.101 56.5931 197.548 24.9463 169.485 13.875 133.189-3.56849 76.0027 37.3084 15.2917 98.124 11.5994 104.048 11.4735 110.114 11.2056 116.009 11.8576 168.951 17.7135 207.004 68.6185 198.342 121.218 191.147 164.908 154.893 196.382 111.747 201.226zM104.114 26.2848C98.8412 27.917 99.8363 32.9926 99.7914 37.6908L99.8218 49.5686C98.9789 49.8832 98.1785 50.1335 97.2997 50.3287 75.9169 55.0772 68.4428 94.2888 91.3793 108.065 95.9055 110.784 100.612 110.768 105.625 111.858 132.514 117.701 118.341 163.302 97.3697 149.863 88.7855 144.362 91.5091 133.07 87.125 130.285 84.6065 128.685 80.5475 128.549 79.0256 131.527 73.6066 142.128 85.2555 158.113 95.168 162.734 96.5696 163.388 98.597 163.646 99.7492 164.572L99.7407 178.86C99.7452 183.409 98.385 189.684 105.125 189.465L107.173 189.169C112.781 186.682 112.023 180.877 111.902 175.757L111.796 166.842C111.783 165.15 111.27 164.489 112.919 163.57L113.657 163.271C115.169 162.693 116.534 161.689 117.862 160.777 142.293 144.014 135.703 102.72 105.44 98.8433 103.616 98.6095 101.768 98.5321 100.016 97.9221 89.9943 94.433 86.8744 81.5922 90.7365 72.6054 98.4348 54.6919 116.861 59.7306 119.756 77.5 120.36 81.2122 120.444 86.6316 126.784 83.919 128.852 83.034 130.212 80.4886 130.905 78.4855 134.348 68.5279 122.711 52.9713 113.607 50.0166 112.86 49.774 112.446 49.5539 111.844 49.0528 111.187 42.6129 112.506 35.9216 111.345 29.5 110.693 25.8971 107.18 25.9498 104.114 26.2848zM254.616 109.43C233.106 114.138 225.366 79.1856 246.875 73.8052 252.909 72.2959 258.028 73.6982 263.186 76.8363 271.255 73.5479 278.798 69.3334 286.641 65.5741 303.361 57.5595 320.191 49.6049 336.173 40.1641 339.952 37.932 339.129 38.7751 340.461 34.75 342.687 28.0196 348.688 22.864 355.636 21.5605 377.813 19.1769 384.438 50.6938 363.237 57.4328 356.547 59.5592 351.915 57.4243 346.102 54.3831 342.963 55.7898 339.991 57.7233 336.948 59.3369L274.18 90.7758C270.264 92.3928 271.9 93.1137 269.75 96.8966 266.355 102.871 261.294 107.559 254.616 109.43zM282.875 502.013L90.6118 501.986C87.8463 501.973 84.9406 502.081 82.2392 501.408L77.9443 500.478C68.9593 498.112 61.5183 491.615 56.9781 483.638 53.8457 478.134 51.2604 466.068 53.1283 459.59L53.2303 459.25C55.4837 451.247 62.4088 451.007 69.2076 450.993L82.417 451.089C82.6268 449.889 82.5092 448.522 82.5091 447.297L82.467 273.794C82.4609 263.854 81.2932 254.463 85.7789 245.25 94.7816 226.76 111.084 227.533 127.939 227.53L229.584 227.526 391.602 227.527C395.815 227.528 401.348 226.95 405.369 228.216L405.625 228.301C421.078 233.285 429.346 245.353 429.396 261.125L429.482 451.059 441.789 451.026C451.611 451.039 458.917 452.277 459.018 463.727 459.109 474.062 457.066 483.747 449.494 491.306 438.221 502.56 427.026 502.017 412.509 502.023L282.875 502.013zM120.637 255.182L120.274 255.137C108.286 256.633 111.818 277.766 111.829 286.463L111.815 451.064 211.164 450.979C218.594 450.97 229.106 449.828 228.729 460.375 228.679 461.776 228.753 464.004 228.228 465.259L283.603 464.875C282.726 458.938 284.155 451.756 291.359 451.058L375.042 451 391.701 450.968C394.292 450.963 397.156 451.206 399.718 450.883L399.702 271.158C399.675 256.125 397.925 255.078 381.768 255.225L120.637 255.182z" transform="scale(2.92969)" class="color264653 svgShape"></path>
  <path fill="#ffffff" d="M369.29 299.743L141.903 299.541C131.731 299.054 133.175 286.172 142.982 285.089L360.884 285.242C363.706 285.245 366.607 285.116 369.422 285.295 379.413 285.929 379.598 298.299 369.29 299.743zM367.313 342.287L149.414 342.283C146.556 342.302 143.621 342.481 140.772 342.295 132.785 341.774 130.908 328.312 144.656 327.871L361.907 327.882C364.61 327.872 367.461 327.691 370.151 327.925 378.228 328.626 380.971 342.293 367.313 342.287zM369.997 385.259L160.282 384.959C154.105 384.961 147.781 385.246 141.618 384.919 132.151 384.417 132.184 372.267 141.946 370.566L369.896 370.628C378.648 370.972 378.999 383.497 369.997 385.259zM201.125 425.306L160.768 425.305C156.566 425.305 141.402 426.438 138.381 424.649L138.125 424.492C131.702 420.771 134.27 412.459 141.326 411.597 143.558 411.324 145.893 411.442 148.139 411.441L310.976 411.428 365.588 411.411C367.448 411.411 370.575 411.018 372.219 411.847L372.5 412.003C374.917 413.321 376.994 415.753 377.054 418.616 377.197 425.523 369.134 425.325 364.622 425.32L201.125 425.306z" transform="scale(2.92969)" class="color264653 svgShape"></path>
</svg>
