<svg xmlns="http://www.w3.org/2000/svg" viewBox="0 0 64 64" id="Delivery">
  <path d="M18,24a2,2,0,0,0,0-4H16V16a2,2,0,0,0-4,0v6a2,2,0,0,0,2,2Z" fill="#ffffff" class="color000000 svgShape"></path>
  <path d="M63.41,35.59l-3.69-3.69L56.87,24.3A2,2,0,0,0,55,23H51a2,2,0,0,0,0,4h2.61l2.51,6.7a2,2,0,0,0,.46.71L60,37.83V46H54.92A8,8,0,0,0,45,42.59V20.16A2.16,2.16,0,0,0,42.84,18H27.41A14,14,0,1,0,8,34.63V47.84A2.16,2.16,0,0,0,10.16,50H11a8,8,0,0,0,16,0H40a8,8,0,0,0,16,0h6a2,2,0,0,0,2-2V37A2,2,0,0,0,63.41,35.59ZM4,22A10,10,0,1,1,14,32,10,10,0,0,1,4,22ZM19,54a4,4,0,1,1,4-4A4,4,0,0,1,19,54Zm29,0a4,4,0,1,1,4-4A4,4,0,0,1,48,54Z" fill="#ffffff" class="color000000 svgShape"></path>
</svg>
