<svg xmlns="http://www.w3.org/2000/svg" viewBox="0 0 29 29" id="Downtime">
  <path d="M4 14.5A10.512 10.512 0 0 1 14.5 4V2a12.501 12.501 0 0 0-6.23 23.34l.999-1.734A10.537 10.537 0 0 1 4 14.5Zm18-.75v1.5h4v-1.5Zm-1.38 5.15 3.464 2 .75-1.3-3.464-2Zm-3.02 2.47 2 3.464 1.3-.75-2-3.464ZM13.75 26h1.5v-4h-1.5ZM20.9 4.916l-1.3-.75-2 3.464 1.3.75Zm.47 6.483 3.464-2-.75-1.298-3.464 2ZM14.5 6a1 1 0 0 0-1 1v7.723l-2.857 4.762a1 1 0 0 0 1.714 1.03l3-5c.013-.02.013-.044.023-.065a1.408 1.408 0 0 0 .107-.383c.001-.023.013-.043.013-.067V7a1 1 0 0 0-1-1Z" fill="#ffffff" class="color000000 svgShape"></path>
</svg>
