<svg xmlns="http://www.w3.org/2000/svg" xml:space="preserve" viewBox="0 0 512 512" id="Investigation">
  <path d="M121.381 144.36a8 8 0 0 1 8-8h218.5a8 8 0 0 1 0 16h-218.5a8 8 0 0 1-8-8zm8 54.999h218.5a8 8 0 0 0 0-16h-218.5a8 8 0 0 0 0 16zM275.2 404.321c-38.791 0-70.35-31.56-70.35-70.351s31.559-70.35 70.35-70.35 70.35 31.559 70.35 70.35-31.559 70.351-70.35 70.351zm0-16c29.969 0 54.35-24.382 54.35-54.351s-24.381-54.35-54.35-54.35-54.35 24.381-54.35 54.35 24.381 54.351 54.35 54.351zM450.227 490.46l-18.538 18.538a17.548 17.548 0 0 1-12.444 5.146 17.538 17.538 0 0 1-12.443-5.146l-35.137-35.138H84.631c-15.439 0-28-12.561-28-28V77.859c0-15.439 12.561-28 28-28h69v-18a8 8 0 0 1 8-8h38.149C206.155 8.278 221.333-2.14 238.631-2.14s32.476 10.418 38.851 25.999h38.149a8 8 0 0 1 8 8v18h69c15.439 0 28 12.561 28 28v358.118l29.595 29.595c6.861 6.862 6.861 18.027.001 24.888zM169.631 75.859h138v-36h-35.949a7.999 7.999 0 0 1-7.777-6.124c-2.822-11.702-13.215-19.875-25.274-19.875s-22.452 8.173-25.274 19.875a7.999 7.999 0 0 1-7.777 6.124h-35.949v36zm-85 382.001h271.167c-4.058-4.993-4.96-11.706-2.724-17.472l-21.441-21.441c-16.175 10.777-35.582 17.069-56.433 17.069-24.231 0-46.513-8.495-64.035-22.656h-81.784a8 8 0 0 1 0-16h65.909a101.939 101.939 0 0 1-16.864-30.999h-49.045a8 8 0 0 1 0-16h45.096a102.392 102.392 0 0 1-1.323-16.39c0-9.565 1.326-18.826 3.798-27.611H129.38a8 8 0 0 1 0-16h53.576a102.583 102.583 0 0 1 22.706-30.999H129.38a8 8 0 0 1 0-16h98.921c14.05-7.302 30-11.435 46.897-11.435 56.268 0 102.045 45.777 102.045 102.045 0 20.852-6.292 40.259-17.069 56.434l21.441 21.441c6.306-2.445 13.745-1.137 18.825 3.944l4.188 4.188V77.859c0-6.617-5.383-12-12-12h-69v18a8 8 0 0 1-8 8h-154a8 8 0 0 1-8-8v-18h-69c-6.617 0-12 5.383-12 12V445.86c.003 6.618 5.386 12 12.003 12zm284.613-35.76-19.029-19.029a103.125 103.125 0 0 1-5.915 5.915l19.028 19.028 5.916-5.914zm-94.044-2.084c47.445 0 86.045-38.6 86.045-86.045s-38.6-86.045-86.045-86.045-86.045 38.6-86.045 86.045 38.599 86.045 86.045 86.045zm163.713 56.871-49.784-49.783a1.62 1.62 0 0 0-2.261 0l-18.536 18.536a1.62 1.62 0 0 0-.001 2.26l49.784 49.784a1.619 1.619 0 0 0 2.261 0l18.537-18.537a1.62 1.62 0 0 0 0-2.26z" fill="#ffffff" class="color000000 svgShape"></path>
</svg>
