<?xml version="1.0" encoding="UTF-8"?>
<svg version="1.1" xmlns="http://www.w3.org/2000/svg" width="2667" height="2667">
<path d="M0 0 C45.71102291 41.67429371 67.57355221 101.36331206 70.80559528 162.2274152 C71.30670596 173.4946533 71.16973509 184.78665259 71.1716097 196.0628762 C71.17335747 199.94723809 71.18085477 203.8315899 71.18758625 207.71594578 C71.19859744 214.51993041 71.20599724 221.32391139 71.21098518 228.12790298 C71.21843047 238.26355633 71.23153206 248.399197 71.24573094 258.53484286 C71.26957645 275.67700241 71.28878479 292.81916429 71.30533028 309.96133232 C71.32193021 327.15433472 71.34045596 344.34733328 71.36146355 361.54033089 C71.36278115 362.62020813 71.36409876 363.70008537 71.3654563 364.81268616 C71.37081766 369.20235436 71.37619185 373.59202253 71.38158319 377.98169069 C71.43092548 418.16397776 71.47545806 458.34626871 71.51708984 498.52856445 C71.55552536 535.62524838 71.59693416 572.72192715 71.64208984 609.81860352 C71.6448404 612.08169255 71.6475903 614.34478159 71.65033956 616.60787062 C71.65237985 618.2872732 71.65237985 618.2872732 71.65446136 620.00060311 C71.65582096 621.11972178 71.65718057 622.23884045 71.65858138 623.39187181 C71.66132653 625.65105743 71.66407169 627.91024306 71.66681685 630.16942868 C71.66817453 631.28696841 71.6695322 632.40450813 71.67093102 633.55591269 C71.67367149 635.81162381 71.67641255 638.06733492 71.67915421 640.32304603 C71.81297455 750.46602637 71.92573115 860.60902145 72.0144043 983.61962891 C72.01515624 984.67987316 72.01590818 985.74011741 72.01668291 986.83249028 C72.05359388 1039.02443069 72.08332539 1091.21636965 72.09557647 1143.40832216 C72.09591075 1144.83079207 72.09591075 1144.83079207 72.09625178 1146.28199876 C72.09714102 1150.08103434 72.09803023 1153.88006992 72.09889366 1157.6791055 C72.10184731 1170.50566933 72.1068271 1183.33223061 72.1135956 1196.15879297 C72.15387769 1272.88032634 72.09546775 1349.59042308 71.0460054 1426.3066493 C71.01433313 1428.62483787 70.98302511 1430.9430311 70.95181537 1433.26122594 C70.80273295 1444.31883218 70.65130255 1455.37640722 70.48180485 1466.4337225 C70.46822785 1467.32013579 70.45465086 1468.20654909 70.44066244 1469.1198234 C70.16787244 1483.70100581 68.90873749 1498.22080827 65.8269043 1512.49462891 C65.60969727 1513.50162842 65.39249023 1514.50862793 65.16870117 1515.54614258 C59.51345386 1540.75912019 49.17548236 1565.5970188 34.0144043 1586.61962891 C33.30026367 1587.62251953 32.58612305 1588.62541016 31.8503418 1589.65869141 C19.59831482 1606.41323006 5.60229149 1622.05235149 -10.9855957 1634.61962891 C-11.50025391 1635.01069824 -12.01491211 1635.40176758 -12.54516602 1635.8046875 C-43.83971539 1659.39237024 -83.27088999 1676.56733452 -122.9387207 1676.82275391 C-124.03945671 1676.83327538 -124.03945671 1676.83327538 -125.16242981 1676.8440094 C-127.52021491 1676.86142444 -129.87774863 1676.86786259 -132.2355957 1676.86962891 C-133.04205536 1676.87030365 -133.84851501 1676.87097839 -134.67941284 1676.87167358 C-147.01103339 1676.85528025 -158.91715823 1676.36610946 -170.9855957 1673.61962891 C-171.76032227 1673.44802246 -172.53504883 1673.27641602 -173.33325195 1673.09960938 C-202.05057864 1666.56816861 -228.96621428 1654.04122383 -251.9855957 1635.61962891 C-252.49799805 1635.21019043 -253.01040039 1634.80075195 -253.53833008 1634.37890625 C-267.3602854 1623.24738688 -279.42350419 1610.87383229 -289.9855957 1596.61962891 C-290.83583315 1595.4998198 -291.68609341 1594.38002801 -292.53637695 1593.26025391 C-299.29139417 1584.22697145 -304.7971749 1574.62213463 -309.9855957 1564.61962891 C-310.37634277 1563.87084473 -310.76708984 1563.12206055 -311.16967773 1562.35058594 C-329.29469724 1527.17298828 -335.38465969 1488.67359093 -335.49487686 1449.46172428 C-335.51173316 1447.16978427 -335.52976079 1444.87785264 -335.54884896 1442.58593013 C-335.59634497 1436.42316781 -335.62581293 1430.26044491 -335.65121708 1424.09755683 C-335.67507257 1418.83598297 -335.70931499 1413.574488 -335.74333866 1408.31297246 C-336.09679785 1353.6479774 -336.10981995 1298.98152683 -336.06443476 1244.31563329 C-336.05629069 1234.39671986 -336.05096084 1224.47780731 -336.04718208 1214.5588913 C-336.04690228 1213.82961204 -336.04662247 1213.10033278 -336.04633418 1212.34895414 C-336.04519928 1209.37577113 -336.04407792 1206.4025881 -336.04297434 1203.42940508 C-336.03103098 1171.32239156 -336.01050443 1139.2153868 -335.98736574 1107.10837967 C-335.98678696 1106.30501069 -335.98620818 1105.5016417 -335.98561186 1104.67392821 C-335.98444005 1103.04791672 -335.98326712 1101.42190523 -335.98209306 1099.79589375 C-335.96907592 1081.73951667 -335.95776033 1063.68313864 -335.9466405 1045.6267603 C-335.91237458 990.07597142 -335.87601614 934.52518454 -335.83201218 878.97440243 C-335.8306248 877.22025539 -335.82923771 875.46610835 -335.8278509 873.71196131 C-335.82298492 867.55818268 -335.81811274 861.40440405 -335.8132397 855.25062543 C-335.8090505 849.96033465 -335.80486349 844.67004388 -335.80067946 839.3797531 C-335.7992823 837.61382778 -335.79788416 835.84790247 -335.79648504 834.08197715 C-335.75207408 778.02299756 -335.71879793 721.96402092 -335.6940918 665.9050293 C-335.67557552 623.89259538 -335.65606547 581.88016469 -335.62512589 539.86773777 C-335.62450344 539.02179031 -335.62388099 538.17584286 -335.62323968 537.30426063 C-335.6095429 518.73483325 -335.59498508 500.16540663 -335.57962778 481.59598055 C-335.57414377 474.95372066 -335.56873064 468.31146071 -335.56335498 461.66920073 C-335.56201785 460.01732644 -335.56067746 458.36545215 -335.55933381 456.71357786 C-335.53804051 430.48639993 -335.5256294 404.25922737 -335.51782342 378.03204226 C-335.5099169 351.66583025 -335.49244233 325.29964233 -335.46198815 298.93344622 C-335.45777395 295.28418825 -335.45366302 291.63493016 -335.44961357 287.985672 C-335.44881586 287.27045887 -335.44801815 286.55524573 -335.44719626 285.81835948 C-335.43489262 274.54514625 -335.43251495 263.27195428 -335.4343879 251.99873542 C-335.43602374 240.88735238 -335.42661308 229.77601226 -335.40659576 218.66464476 C-335.39621633 212.73518771 -335.39035979 206.80582896 -335.39787886 200.8763653 C-335.46430551 142.38903857 -335.46430551 142.38903857 -329.1730957 114.43212891 C-328.91447754 113.23982666 -328.65585938 112.04752441 -328.3894043 110.8190918 C-326.1704483 100.87276602 -323.48167259 91.19078777 -319.9855957 81.61962891 C-319.69990723 80.82862793 -319.41421875 80.03762695 -319.11987305 79.22265625 C-306.79742328 45.59721391 -286.79632842 13.50589367 -257.9855957 -8.38037109 C-257.05360352 -9.11642578 -256.12161133 -9.85248047 -255.16137695 -10.61083984 C-184.46262064 -65.45193119 -72.83928318 -62.6182677 0 0 Z " fill="#FFFFFF" transform="translate(1475.985595703125,519.38037109375)"/>
<path d="M0 0 C2.61447658 2.29782966 5.16354188 4.65049615 7.69921875 7.03515625 C8.25770508 7.55964355 8.81619141 8.08413086 9.39160156 8.62451172 C48.95414669 46.09081656 71.64764905 98.27906883 73.1749953 152.64762551 C73.20698351 154.03317871 73.23865949 155.41873916 73.27005005 156.80430603 C73.30833841 158.29563276 73.34698451 159.78695035 73.38596261 161.27825922 C73.50250327 165.86364917 73.60356319 170.44928754 73.69921875 175.03515625 C73.71390597 175.73532392 73.72859319 176.4354916 73.74372548 177.15687647 C73.96293541 187.76351468 74.11802408 198.3707588 74.25341797 208.97875977 C74.26379061 209.77325596 74.27416325 210.56775216 74.28485021 211.386324 C74.87693362 256.87800628 74.84695549 302.37151924 74.83451916 347.86627105 C74.83219373 356.60663918 74.8319655 365.34700537 74.83303452 374.08737373 C74.83318775 375.355152 74.83334098 376.62293026 74.83349886 377.92912604 C74.83381876 380.50896147 74.83414297 383.08879691 74.83447145 385.66863234 C74.83721378 408.94247481 74.83441804 432.2163132 74.82912885 455.4901548 C74.82440622 476.42890408 74.82479537 497.36764726 74.82958984 518.30639648 C74.83503169 542.14875922 74.83700058 565.99111938 74.83397758 589.8334828 C74.83365923 592.41132804 74.83334485 594.98917327 74.83303452 597.56701851 C74.83288024 598.83348617 74.83272596 600.09995383 74.83256701 601.40479929 C74.83184416 608.84734934 74.83249407 616.28989755 74.8345417 623.73244734 C74.83583668 628.5447584 74.83662505 633.35706949 74.83740033 638.16938066 C74.83788571 640.33583471 74.83859725 642.50228874 74.83961605 644.6687426 C74.86893693 707.79892553 74.27313893 770.90393686 73.69921875 834.03515625 C-60.28078125 834.03515625 -194.26078125 834.03515625 -332.30078125 834.03515625 C-332.34115989 669.55499948 -332.34115989 669.55499948 -332.34894621 606.45749104 C-332.35098728 589.95924948 -332.35307512 573.46100793 -332.35530724 556.9627664 C-332.35557709 554.96735549 -332.35584546 552.97194457 -332.35611234 550.97653366 C-332.36037367 519.20661235 -332.3678733 487.43669284 -332.37707847 455.66677261 C-332.38652765 422.99510547 -332.39267053 390.32343931 -332.39469624 357.65177082 C-332.39498436 353.02944199 -332.39531 348.40711315 -332.39565849 343.78478432 C-332.39572592 342.87510857 -332.39579334 341.96543283 -332.39586281 341.02819115 C-332.39704119 326.42770322 -332.4016702 311.82721835 -332.40761328 297.22673167 C-332.41352413 282.52242083 -332.41574335 267.81811301 -332.41428263 253.11380102 C-332.41352624 244.39452437 -332.41551193 235.67525883 -332.42157879 226.9559842 C-332.42536609 221.10949775 -332.42541903 215.26301847 -332.42261306 209.4165315 C-332.42112272 206.09941921 -332.42166082 202.78234438 -332.42566443 199.4652318 C-332.47984443 151.75526627 -332.47984443 151.75526627 -329.61328125 134.28515625 C-329.43958008 133.18212158 -329.26587891 132.07908691 -329.08691406 130.94262695 C-322.00965093 88.1938725 -303.84902954 48.25194124 -274.38671875 16.30859375 C-272.44855575 14.19621385 -270.59054854 12.03517553 -268.73828125 9.84765625 C-265.23432313 5.83970416 -261.37765297 2.44655922 -257.30078125 -0.96484375 C-256.42679688 -1.72667969 -255.5528125 -2.48851562 -254.65234375 -3.2734375 C-187.57880216 -60.90633316 -87.34775231 -64.14903895 0 0 Z " fill="#FFFFFF" transform="translate(1915.30078125,1361.96484375)"/>
<path d="M0 0 C0.51900879 0.45874512 1.03801758 0.91749023 1.57275391 1.39013672 C46.04512933 40.93417503 68.65378201 98.39197285 73 157 C73.17635012 160.87416893 73.25200567 164.74687592 73.31297302 168.62442017 C73.33353402 169.78798782 73.35409501 170.95155548 73.37527907 172.15038276 C73.44242211 176.17391311 73.50061234 180.1974918 73.55639648 184.22119141 C73.57199454 185.30742831 73.57199454 185.30742831 73.58790772 186.41560939 C74.35874991 240.28815536 74.12838215 294.17427481 74.10353873 348.05114122 C74.09841811 359.34223659 74.09581875 370.63333057 74.09487724 381.92442703 C74.0948085 382.73478716 74.09473976 383.5451473 74.09466894 384.3800638 C74.09433046 388.4979831 74.09402913 392.6159024 74.09374207 396.7338217 C74.09165967 425.65637088 74.08497364 454.57891724 74.07543945 483.50146484 C74.06620675 511.54248032 74.05916401 539.58349502 74.05493164 567.62451172 C74.054661 569.39777633 74.05439029 571.17104093 74.05411953 572.94430554 C74.05192972 587.36033296 74.04988755 601.77636041 74.04788104 616.19238786 C74.03855166 682.46159457 74.01846625 748.73079392 74 815 C-59.98 815 -193.96 815 -332 815 C-332.62894094 709.9668625 -332.62894094 709.9668625 -332.7734375 674.40625 C-332.77855583 673.15678778 -332.78367415 671.90732555 -332.78894758 670.62000084 C-333.08955505 596.62881826 -333.11609745 522.63717931 -333.12283063 448.64547968 C-333.12397298 436.74057296 -333.12714729 424.83566839 -333.13158324 412.93076247 C-333.18086049 277.91833064 -333.18086049 277.91833064 -332.72799301 212.34976196 C-332.69514122 207.58119834 -332.6680864 202.81266551 -332.64673233 198.04403687 C-332.49932572 166.69229697 -331.4408173 136.62550981 -324 106 C-323.78504883 105.11151367 -323.57009766 104.22302734 -323.34863281 103.30761719 C-314.24576152 66.69203176 -295.91081627 34.24268065 -270 7 C-269.41992188 6.36707031 -268.83984375 5.73414063 -268.2421875 5.08203125 C-254.38980241 -9.57086855 -236.15154415 -20.59228296 -218 -29 C-216.30810547 -29.80050781 -216.30810547 -29.80050781 -214.58203125 -30.6171875 C-146.07789693 -61.6167137 -56.41227416 -49.91278024 0 0 Z " fill="#FFFFFF" transform="translate(1009,517)"/>
</svg>
