<svg version="1.1" id="Layer_1" xmlns="http://www.w3.org/2000/svg" xmlns:xlink="http://www.w3.org/1999/xlink" x="0px" y="0px"
	 width="100%" viewBox="0 0 188 244" enable-background="new 0 0 188 244" xml:space="preserve">
<path fill="#020202" opacity="1.000000" stroke="none" 
	d="
M1.000000,88.000000 
	C1.000000,58.666668 1.000000,29.833336 1.000000,1.000004 
	C63.666660,1.000003 126.333321,1.000003 189.000000,1.000001 
	C189.000000,82.333321 189.000000,163.666641 189.000000,244.999969 
	C126.333351,244.999985 63.666695,244.999985 1.000021,245.000000 
	C1.000000,192.833328 1.000000,140.666672 1.000000,88.000000 
M71.480995,224.544861 
	C71.480995,224.544861 71.599411,224.702957 71.336296,225.325592 
	C71.844109,225.931259 72.351913,226.536926 73.099586,227.607529 
	C73.372490,227.805054 73.645393,228.002579 74.000977,228.802063 
	C74.660004,229.532791 75.319031,230.263519 76.083282,231.656418 
	C80.203285,236.015915 84.681168,239.744705 91.722504,240.559372 
	C95.078842,240.407516 98.435173,240.255676 102.028320,240.345718 
	C102.289490,240.207169 102.550659,240.068619 103.432175,240.016953 
	C103.608391,239.904938 103.784599,239.792938 104.648796,239.787109 
	C106.408768,238.845673 108.168747,237.904221 110.630241,236.777008 
	C110.768097,236.578110 110.905960,236.379227 111.113136,236.502594 
	C111.473816,236.152771 111.834503,235.802963 112.901260,235.265228 
	C119.764915,230.297379 122.960693,223.240448 124.811462,214.739441 
	C124.692703,213.769821 124.573952,212.800201 124.435486,211.008759 
	C124.481026,208.526001 124.559074,206.043365 124.567055,203.560486 
	C124.641624,180.377182 124.704178,157.193848 125.618652,133.740570 
	C125.649277,112.771843 125.796143,91.802414 125.669914,70.834633 
	C125.584953,56.721760 125.421944,42.594528 124.658684,28.508137 
	C124.368057,23.144564 123.366814,17.384243 117.999138,13.986846 
	C117.999138,13.986846 118.063667,13.929855 118.139862,13.293082 
	C117.509201,12.801818 116.878532,12.310553 116.192078,11.805989 
	C116.192078,11.805989 116.178940,11.750153 116.108978,11.078918 
	C114.694107,10.108770 113.279243,9.138622 111.954063,8.017870 
	C111.954063,8.017870 111.838791,8.150021 111.654541,7.542307 
	C111.115204,7.346040 110.575874,7.149772 109.616547,6.841414 
	C109.616547,6.841414 109.213692,6.678126 109.044479,5.976373 
	C105.312424,5.205655 101.580368,4.434937 97.105202,3.678890 
	C96.114265,3.688640 95.123322,3.698391 93.514603,3.293246 
	C89.732285,4.591074 85.949974,5.888903 81.788200,7.447304 
	C81.788200,7.447304 81.368752,7.636912 80.802788,7.430469 
	C80.471855,7.874995 80.140923,8.319521 79.532921,9.020790 
	C79.532921,9.020790 79.226662,9.241894 78.504272,9.149111 
	C77.706116,10.131382 76.907967,11.113653 76.004166,12.014298 
	C76.004166,12.014298 76.096848,12.110813 75.569206,12.217085 
	C75.431625,12.526298 75.294044,12.835509 74.791176,13.683539 
	C74.263191,14.368684 73.735207,15.053828 72.789970,15.304140 
	C72.708496,15.409957 72.536270,15.568981 72.561600,15.612177 
	C72.659790,15.779657 72.820847,15.910278 72.730873,16.824282 
	C72.601257,17.058321 72.471634,17.292362 71.635300,17.483158 
	C70.962730,20.061600 70.290161,22.640041 69.458092,25.859083 
	C69.352402,26.286251 69.246712,26.713419 68.747955,27.186419 
	C68.676155,27.296801 68.518562,27.449091 68.548264,27.509899 
	C68.647141,27.712334 68.813248,27.881926 68.882553,28.649508 
	C68.836784,29.039904 68.791016,29.430298 68.315468,30.189137 
	C68.416771,30.521896 68.518074,30.854658 68.524132,32.093643 
	C68.502350,58.065651 68.480568,84.037659 67.824684,110.167099 
	C68.035866,110.774132 68.247047,111.381157 68.455048,112.920204 
	C68.388550,117.587791 68.322052,122.255386 67.661842,127.026367 
	C67.782394,127.762672 67.902946,128.498978 68.326637,129.859146 
	C68.362610,130.786087 68.398582,131.713028 67.964470,132.504196 
	C67.964470,132.504196 67.583191,132.811325 67.146210,133.542435 
	C67.105606,145.926102 67.044281,158.309814 67.070183,170.693344 
	C67.071938,171.535828 67.728935,172.376923 68.314034,174.033981 
	C68.219391,176.286804 68.124748,178.539642 67.392738,181.196518 
	C67.268890,185.313751 66.974419,189.435089 67.073380,193.546967 
	C67.157585,197.045486 67.695023,200.533096 68.260605,204.780746 
	C68.161118,205.817337 68.061623,206.853943 67.420593,208.000885 
	C67.681427,208.323181 67.942253,208.645462 68.407097,209.559357 
	C68.426048,209.976105 68.445000,210.392838 68.112572,211.455795 
	C68.301895,212.370361 68.491226,213.284912 68.704727,214.751709 
	C68.738441,215.118530 68.772148,215.485336 68.430183,216.236496 
	C68.658958,216.794037 68.887726,217.351578 69.297501,218.357056 
	C69.297501,218.357056 69.524345,218.783646 69.266548,219.437027 
	C69.594032,220.198456 69.921516,220.959900 70.535973,222.261597 
	C70.612579,222.450592 70.689194,222.639572 70.483070,223.385223 
	C70.775078,223.719955 71.067085,224.054703 71.480995,224.544861 
M178.825623,130.208771 
	C178.825623,130.208771 178.895081,130.524109 178.701202,129.921112 
	C177.555710,128.984177 176.410202,128.047241 175.004913,126.492126 
	C173.059280,125.158531 171.113632,123.824928 168.725113,122.000412 
	C167.898407,121.724411 167.071716,121.448410 165.780441,120.732430 
	C163.314301,120.368980 160.848160,120.005524 157.793091,119.297806 
	C156.916245,119.409187 156.039398,119.520569 155.045029,119.205605 
	C154.031067,119.484428 153.017105,119.763260 151.308136,119.925911 
	C150.888779,120.108070 150.469437,120.290222 149.340012,120.402290 
	C146.834869,121.799347 144.329712,123.196396 141.042419,124.801285 
	C140.256683,125.524658 139.470963,126.248032 138.875397,126.856537 
	C138.875397,126.856537 138.841919,126.948196 138.209976,127.244614 
	C137.402771,128.319382 136.595581,129.394150 135.137939,130.750809 
	C133.934036,133.188797 132.730148,135.626785 131.048065,138.515945 
	C131.054810,138.734985 131.061554,138.954041 130.638611,139.718262 
	C130.187607,144.117294 129.736588,148.516312 129.038498,153.834427 
	C129.023102,155.661728 128.986526,157.489120 128.995560,159.316299 
	C129.097458,179.902023 129.206329,200.487701 128.924332,221.322113 
	C129.068192,221.848145 129.212051,222.374191 129.063522,223.808334 
	C129.216095,229.213058 129.368683,234.617783 129.359253,240.376633 
	C129.359253,240.376633 129.623047,240.663345 129.623047,240.663345 
	C129.623047,240.663345 130.003616,240.579758 130.845108,241.020508 
	C148.830353,240.961258 166.815582,240.902008 185.300812,240.968796 
	C185.334244,240.601990 185.367676,240.235199 185.347610,238.954300 
	C185.363495,234.016846 185.379395,229.079376 185.857529,223.609589 
	C185.708527,222.025436 185.559525,220.441299 185.367661,217.944016 
	C185.398972,213.012711 185.430267,208.081390 185.894714,202.557617 
	C185.748520,200.654739 185.602325,198.751862 185.407913,195.933868 
	C185.424469,189.671432 185.441010,183.408997 185.887589,176.642853 
	C185.745270,175.379166 185.602936,174.115494 185.408920,172.176956 
	C185.422729,171.500641 185.436554,170.824341 185.860840,169.795212 
	C185.723312,169.146820 185.585770,168.498413 185.401047,167.174179 
	C185.412552,166.497086 185.424057,165.820007 185.866699,164.705582 
	C185.711655,163.756195 185.556625,162.806824 185.351578,160.976547 
	C185.340775,158.030273 185.329956,155.083984 185.763031,151.641342 
	C185.594681,150.385284 185.426315,149.129227 185.189682,147.238998 
	C185.081131,146.834076 184.972580,146.429138 185.144943,145.617035 
	C185.144943,145.617035 185.197510,145.125381 185.623505,144.527451 
	C184.590393,141.613388 183.557266,138.699310 182.380035,135.585373 
	C182.380035,135.585373 182.328018,135.344513 182.735260,134.741913 
	C182.194260,134.129974 181.653275,133.518036 180.749557,132.479294 
	C180.466675,131.998398 180.183807,131.517502 180.385406,131.123215 
	C179.961273,130.769348 179.537140,130.415466 178.825623,130.208771 
M4.714786,120.794998 
	C4.769097,121.191628 4.823409,121.588249 4.443274,121.947258 
	C4.512743,122.188690 4.582212,122.430130 4.651685,122.671562 
	C4.772460,122.492386 4.893234,122.313202 5.586038,122.312286 
	C5.984228,122.343033 6.382418,122.373772 6.862364,122.972771 
	C7.652782,122.800743 8.443199,122.628716 10.139179,122.421120 
	C26.910295,122.421120 43.681412,122.421120 60.770863,122.421120 
	C60.864822,120.343147 61.001621,118.719688 61.002163,117.096191 
	C61.010872,90.963249 61.035309,64.830208 60.960976,38.697456 
	C60.950142,34.889183 60.751976,31.031200 60.120232,27.283930 
	C57.813847,13.603336 47.048725,4.059572 33.810650,3.685797 
	C19.952288,3.294509 8.905891,11.293434 5.348296,24.355715 
	C5.168300,26.268089 4.988303,28.180462 4.794960,30.888205 
	C4.759125,32.213070 4.723290,33.537933 4.231485,35.397678 
	C4.369281,36.979156 4.507078,38.560638 4.671636,41.060398 
	C4.655428,66.637894 4.639220,92.215393 4.001053,117.812195 
	C4.221118,118.605965 4.441183,119.399727 4.714786,120.794998 
z"/>
<path fill="#FEFEFD" opacity="1.000000" stroke="none" 
	d="
M67.962135,207.890533 
	C68.061623,206.853943 68.161118,205.817337 68.389259,204.319061 
	C68.545494,203.688217 68.573067,203.519089 68.728920,203.124329 
	C68.775291,202.574783 68.693398,202.250839 68.652275,201.465240 
	C68.472061,194.266541 68.251083,187.529495 68.030106,180.792465 
	C68.124748,178.539642 68.219391,176.286804 68.469269,173.213654 
	C68.642685,164.282715 68.660881,156.172089 68.812592,147.606232 
	C68.775597,142.313980 68.605080,137.476974 68.434563,132.639969 
	C68.398582,131.713028 68.362610,130.786087 68.466316,129.356262 
	C68.489182,128.209900 68.372368,127.566437 68.255562,126.922974 
	C68.322052,122.255386 68.388550,117.587791 68.665054,112.323586 
	C68.736298,111.154533 68.597542,110.582100 68.458786,110.009666 
	C68.480568,84.037659 68.502350,58.065651 68.758461,31.447807 
	C68.910278,30.474878 68.827766,30.147785 68.745247,29.820694 
	C68.791016,29.430298 68.836784,29.039904 69.095558,28.152256 
	C69.252716,27.483530 69.196869,27.312059 69.141022,27.140587 
	C69.246712,26.713419 69.352402,26.286251 69.770111,25.295086 
	C70.835419,22.329529 71.588715,19.927967 72.342010,17.526405 
	C72.471634,17.292362 72.601257,17.058321 72.902557,16.401192 
	C73.074249,15.978103 73.207214,15.738972 73.207214,15.738972 
	C73.735207,15.053828 74.263191,14.368684 75.249054,13.382015 
	C75.836899,12.757264 75.966873,12.434039 76.096848,12.110813 
	C76.096848,12.110813 76.004166,12.014298 76.368568,12.000168 
	C77.564201,11.071323 78.395432,10.156609 79.226662,9.241894 
	C79.226662,9.241894 79.532921,9.020790 79.942909,8.926725 
	C80.691513,8.434079 81.030136,8.035496 81.368752,7.636912 
	C81.368752,7.636912 81.788200,7.447304 82.364151,7.317518 
	C86.670860,6.027869 90.401619,4.868005 94.132385,3.708142 
	C95.123322,3.698391 96.114265,3.688640 97.833878,3.855471 
	C102.112938,4.914076 105.663315,5.796101 109.213692,6.678125 
	C109.213692,6.678126 109.616547,6.841414 109.879562,7.206305 
	C110.707985,7.764137 111.273384,7.957079 111.838791,8.150021 
	C111.838791,8.150021 111.954063,8.017870 111.975777,8.410202 
	C113.391304,9.785072 114.785126,10.767612 116.178940,11.750152 
	C116.178940,11.750153 116.192078,11.805989 116.215157,12.122341 
	C116.846710,12.935746 117.455193,13.432800 118.063667,13.929855 
	C118.063667,13.929855 117.999138,13.986846 118.015381,14.326027 
	C122.471153,21.230524 124.136444,28.502558 124.113586,36.385406 
	C124.024338,67.164642 124.083260,97.944344 124.133202,128.723801 
	C124.136063,130.486374 124.548424,132.248291 124.770203,134.010513 
	C124.704178,157.193848 124.641624,180.377182 124.567055,203.560486 
	C124.559074,206.043365 124.481026,208.526001 124.255440,211.811676 
	C124.168274,213.462051 124.261162,214.309509 124.354042,215.156952 
	C122.960693,223.240448 119.764915,230.297379 112.440590,235.059235 
	C111.286087,234.354065 110.592247,233.854904 109.898415,233.355743 
	C109.935341,233.906113 109.972267,234.456482 109.651520,235.014816 
	C107.516167,236.575500 105.738495,238.128204 103.960815,239.680923 
	C103.784599,239.792938 103.608391,239.904938 102.857819,239.963242 
	C102.119476,239.974304 101.955490,240.039062 101.791512,240.103821 
	C98.435173,240.255676 95.078842,240.407516 91.322906,240.003082 
	C89.934868,237.568161 88.946442,235.689560 87.302605,232.565277 
	C86.360016,233.099304 84.430267,234.192612 82.500519,235.285904 
	C82.728889,234.931274 82.957260,234.576630 83.185638,234.221985 
	C80.783112,233.146088 78.380585,232.070175 75.978058,230.994263 
	C75.319031,230.263519 74.660004,229.532791 74.083755,228.241425 
	C74.339806,227.098724 74.513077,226.516663 74.686340,225.934601 
	C74.139862,225.948822 73.593384,225.963043 72.870209,225.798645 
	C72.328812,225.314331 71.964111,225.008636 71.599411,224.702957 
	C71.599411,224.702957 71.480995,224.544861 71.493652,224.243561 
	C71.259476,223.571014 71.012634,223.199783 70.765800,222.828537 
	C70.689194,222.639572 70.612579,222.450592 70.482529,221.681046 
	C70.127510,220.328217 69.825928,219.555923 69.524345,218.783646 
	C69.524345,218.783646 69.297501,218.357056 69.325089,217.779114 
	C69.170403,216.751495 68.988129,216.301834 68.805862,215.852158 
	C68.772148,215.485336 68.738441,215.118530 68.857674,214.151062 
	C68.828400,212.636795 68.646179,211.723190 68.463959,210.809586 
	C68.445000,210.392838 68.426048,209.976105 68.435226,208.951294 
	C68.296280,208.192337 68.129211,208.041428 67.962135,207.890533 
z"/>
<path fill="#FFFFFF" opacity="1.000000" stroke="none" 
	d="
M138.685242,126.971405 
	C139.470963,126.248032 140.256683,125.524658 141.548126,125.002617 
	C142.932190,125.388977 144.186844,126.035751 144.624069,125.679451 
	C146.560928,124.101059 148.263031,122.234604 150.050079,120.472382 
	C150.469437,120.290222 150.888779,120.108070 151.867401,120.242699 
	C153.338638,120.250305 154.250595,119.941132 155.162552,119.631958 
	C156.039398,119.520569 156.916245,119.409187 158.437164,119.685051 
	C161.430481,120.690926 163.183197,125.193954 166.245010,121.172409 
	C167.071716,121.448410 167.898407,121.724411 168.897263,122.646942 
	C170.806076,127.254784 172.926575,128.561203 175.264709,127.110313 
	C176.410202,128.047241 177.555710,128.984177 178.710693,130.606110 
	C177.633087,133.848129 178.135895,135.281113 181.435455,134.949799 
	C181.787750,135.291733 182.023224,135.396210 182.328018,135.344513 
	C182.328018,135.344513 182.380035,135.585373 182.401245,135.960297 
	C182.531784,136.879562 182.641113,137.423935 182.419312,138.061462 
	C179.856888,140.810867 181.065262,141.813583 184.024780,142.251175 
	C184.083237,142.654480 184.060165,142.820282 183.777786,143.172455 
	C183.966995,144.247299 184.415512,145.135757 184.864044,146.024216 
	C184.972580,146.429138 185.081131,146.834076 185.051331,147.963776 
	C185.048355,149.838272 185.183746,150.987991 185.319122,152.137711 
	C185.329956,155.083984 185.340775,158.030273 185.197311,161.809952 
	C185.173874,163.476547 185.304718,164.309723 185.435562,165.142914 
	C185.424057,165.820007 185.412552,166.497086 185.246857,167.882019 
	C185.211914,169.109238 185.331131,169.628632 185.450348,170.148026 
	C185.436554,170.824341 185.422729,171.500641 185.254639,172.921646 
	C185.219421,174.826416 185.338486,175.986481 185.457550,177.146561 
	C185.441010,183.408997 185.424469,189.671432 185.254074,196.816620 
	C185.220673,199.516281 185.341110,201.333191 185.461563,203.150085 
	C185.430267,208.081390 185.398972,213.012711 185.204086,218.815445 
	C185.158768,221.171890 185.277023,222.656906 185.395294,224.141922 
	C185.379395,229.079376 185.363495,234.016846 185.121979,239.592010 
	C184.864502,240.434067 184.832672,240.638412 184.800827,240.842773 
	C166.815582,240.902008 148.830353,240.961258 130.409561,240.661163 
	C129.883224,240.111191 129.732315,240.018082 129.521271,240.022507 
	C129.368683,234.617783 129.216095,229.213058 129.412048,223.227509 
	C129.611511,222.122253 129.462418,221.597824 129.313339,221.073395 
	C129.206329,200.487701 129.097458,179.902023 128.995560,159.316299 
	C128.986526,157.489120 129.023102,155.661728 129.423462,153.087433 
	C130.228394,147.951340 130.648346,143.562210 131.068298,139.173096 
	C131.061554,138.954041 131.054810,138.734985 131.637802,138.272034 
	C135.778946,136.622192 136.460434,133.864365 135.788391,130.468918 
	C136.595581,129.394150 137.402771,128.319382 138.501831,127.072952 
	C138.793686,126.901291 138.685242,126.971405 138.685242,126.971405 
z"/>
<path fill="#FDFDFB" opacity="1.000000" stroke="none" 
	d="
M4.687455,34.862797 
	C4.723290,33.537933 4.759125,32.213070 5.044304,30.170219 
	C5.487459,27.606333 5.681269,25.760427 5.875079,23.914524 
	C8.905891,11.293434 19.952288,3.294509 33.810650,3.685797 
	C47.048725,4.059572 57.813847,13.603336 60.120232,27.283930 
	C60.751976,31.031200 60.950142,34.889183 60.960976,38.697456 
	C61.035309,64.830208 61.010872,90.963249 61.002163,117.096191 
	C61.001621,118.719688 60.864822,120.343147 60.770863,122.421120 
	C43.681412,122.421120 26.910295,122.421120 9.295805,122.250198 
	C7.895156,122.187691 7.337882,122.296097 6.780608,122.404510 
	C6.382418,122.373772 5.984228,122.343033 5.297875,122.156693 
	C5.009712,122.001099 4.877720,121.984879 4.877720,121.984879 
	C4.823409,121.588249 4.769097,121.191628 4.846017,120.101944 
	C4.859169,118.870216 4.741090,118.331558 4.623012,117.792892 
	C4.639220,92.215393 4.655428,66.637894 4.838753,40.186737 
	C4.899732,37.829651 4.793593,36.346222 4.687455,34.862797 
z"/>
<path fill="#78796B" opacity="1.000000" stroke="none" 
	d="
M125.194427,133.875549 
	C124.548424,132.248291 124.136063,130.486374 124.133202,128.723801 
	C124.083260,97.944344 124.024338,67.164642 124.113586,36.385406 
	C124.136444,28.502558 122.471153,21.230524 118.051979,14.304464 
	C123.366814,17.384243 124.368057,23.144564 124.658684,28.508137 
	C125.421944,42.594528 125.584953,56.721760 125.669914,70.834633 
	C125.796143,91.802414 125.649277,112.771843 125.194427,133.875549 
z"/>
<path fill="#EBECE3" opacity="1.000000" stroke="none" 
	d="
M76.030670,231.325348 
	C78.380585,232.070175 80.783112,233.146088 83.185638,234.221985 
	C82.957260,234.576630 82.728889,234.931274 82.500519,235.285904 
	C84.430267,234.192612 86.360016,233.099304 87.302605,232.565277 
	C88.946442,235.689560 89.934868,237.568161 90.984955,239.796844 
	C84.681168,239.744705 80.203285,236.015915 76.030670,231.325348 
z"/>
<path fill="#585830" opacity="1.000000" stroke="none" 
	d="
M68.679077,148.061462 
	C68.660881,156.172089 68.642685,164.282715 68.352844,172.806000 
	C67.728935,172.376923 67.071938,171.535828 67.070183,170.693344 
	C67.044281,158.309814 67.105606,145.926102 67.495697,133.641113 
	C68.123146,138.513687 68.401108,143.287567 68.679077,148.061462 
z"/>
<path fill="#585830" opacity="1.000000" stroke="none" 
	d="
M67.711426,180.994492 
	C68.251083,187.529495 68.472061,194.266541 68.474129,201.680603 
	C68.370354,202.688400 68.485504,203.019180 68.600647,203.349945 
	C68.573067,203.519089 68.545494,203.688217 68.274918,203.941452 
	C67.695023,200.533096 67.157585,197.045486 67.073380,193.546967 
	C66.974419,189.435089 67.268890,185.313751 67.711426,180.994492 
z"/>
<path fill="#EDEDE3" opacity="1.000000" stroke="none" 
	d="
M149.695038,120.437340 
	C148.263031,122.234604 146.560928,124.101059 144.624069,125.679451 
	C144.186844,126.035751 142.932190,125.388977 141.939209,124.898697 
	C144.329712,123.196396 146.834869,121.799347 149.695038,120.437340 
z"/>
<path fill="#EDEDE3" opacity="1.000000" stroke="none" 
	d="
M130.853455,139.445679 
	C130.648346,143.562210 130.228394,147.951340 129.546997,152.627899 
	C129.736588,148.516312 130.187607,144.117294 130.853455,139.445679 
z"/>
<path fill="#EDEDE3" opacity="1.000000" stroke="none" 
	d="
M135.463165,130.609863 
	C136.460434,133.864365 135.778946,136.622192 131.876892,138.046448 
	C132.730148,135.626785 133.934036,133.188797 135.463165,130.609863 
z"/>
<path fill="#EDEDE3" opacity="1.000000" stroke="none" 
	d="
M175.134811,126.801224 
	C172.926575,128.561203 170.806076,127.254784 169.118713,122.892395 
	C171.113632,123.824928 173.059280,125.158531 175.134811,126.801224 
z"/>
<path fill="#78796B" opacity="1.000000" stroke="none" 
	d="
M93.823494,3.500694 
	C90.401619,4.868005 86.670860,6.027869 82.553879,7.187232 
	C85.949974,5.888903 89.732285,4.591074 93.823494,3.500694 
z"/>
<path fill="#EDEDE3" opacity="1.000000" stroke="none" 
	d="
M166.012726,120.952423 
	C163.183197,125.193954 161.430481,120.690926 158.731628,119.857178 
	C160.848160,120.005524 163.314301,120.368980 166.012726,120.952423 
z"/>
<path fill="#78796B" opacity="1.000000" stroke="none" 
	d="
M109.129089,6.327249 
	C105.663315,5.796101 102.112938,4.914076 98.205437,3.848135 
	C101.580368,4.434937 105.312424,5.205655 109.129089,6.327249 
z"/>
<path fill="#EBECE3" opacity="1.000000" stroke="none" 
	d="
M104.304810,239.734009 
	C105.738495,238.128204 107.516167,236.575500 109.646774,235.011078 
	C109.999695,234.999374 109.994759,234.990982 109.918076,235.205414 
	C109.870506,235.934143 109.899612,236.448471 109.928719,236.962784 
	C108.168747,237.904221 106.408768,238.845673 104.304810,239.734009 
z"/>
<path fill="#8B8E7A" opacity="1.000000" stroke="none" 
	d="
M68.812592,147.606232 
	C68.401108,143.287567 68.123146,138.513687 67.714188,133.275558 
	C67.583191,132.811325 67.964470,132.504196 68.199516,132.572083 
	C68.605080,137.476974 68.775597,142.313980 68.812592,147.606232 
z"/>
<path fill="#71705C" opacity="1.000000" stroke="none" 
	d="
M182.750458,137.968292 
	C182.641113,137.423935 182.531784,136.879562 182.473297,136.060226 
	C183.557266,138.699310 184.590393,141.613388 185.231567,144.573212 
	C184.572128,144.074677 184.304611,143.530380 184.037094,142.986084 
	C184.060165,142.820282 184.083237,142.654480 184.052612,141.893280 
	C183.582779,140.188019 183.166611,139.078156 182.750458,137.968292 
z"/>
<path fill="#8B8E7A" opacity="1.000000" stroke="none" 
	d="
M71.988655,17.504782 
	C71.588715,19.927967 70.835419,22.329529 69.849854,24.974789 
	C70.290161,22.640041 70.962730,20.061600 71.988655,17.504782 
z"/>
<path fill="#70715C" opacity="1.000000" stroke="none" 
	d="
M5.611688,24.135120 
	C5.681269,25.760427 5.487459,27.606333 5.050978,29.772537 
	C4.988303,28.180462 5.168300,26.268089 5.611688,24.135120 
z"/>
<path fill="#78796B" opacity="1.000000" stroke="none" 
	d="
M116.143959,11.414535 
	C114.785126,10.767612 113.391304,9.785072 111.930931,8.485504 
	C113.279243,9.138622 114.694107,10.108770 116.143959,11.414535 
z"/>
<path fill="#EDEDE3" opacity="1.000000" stroke="none" 
	d="
M181.249283,134.868515 
	C178.135895,135.281113 177.633087,133.848129 178.807617,130.907623 
	C178.895081,130.524109 178.825623,130.208771 179.030579,130.488617 
	C179.457336,130.857849 179.679138,130.947235 179.900940,131.036606 
	C180.183807,131.517502 180.466675,131.998398 180.860779,133.019775 
	C181.064423,133.996338 181.156845,134.432434 181.249283,134.868515 
z"/>
<path fill="#EBECE3" opacity="1.000000" stroke="none" 
	d="
M110.004448,235.003113 
	C109.972267,234.456482 109.935341,233.906113 109.898415,233.355743 
	C110.592247,233.854904 111.286087,234.354065 112.087555,235.153198 
	C111.834503,235.802963 111.473816,236.152771 110.985748,236.154236 
	C110.570488,235.534241 110.282623,235.262619 109.994759,234.990982 
	C109.994759,234.990982 109.999695,234.999374 110.004448,235.003113 
z"/>
<path fill="#EDEDE3" opacity="1.000000" stroke="none" 
	d="
M155.103790,119.418777 
	C154.250595,119.941132 153.338638,120.250305 152.214905,120.300781 
	C153.017105,119.763260 154.031067,119.484428 155.103790,119.418777 
z"/>
<path fill="#78796B" opacity="1.000000" stroke="none" 
	d="
M78.865463,9.195502 
	C78.395432,10.156609 77.564201,11.071323 76.421387,12.040981 
	C76.907967,11.113653 77.706116,10.131382 78.865463,9.195502 
z"/>
<path fill="#71705C" opacity="1.000000" stroke="none" 
	d="
M185.678131,202.853851 
	C185.341110,201.333191 185.220673,199.516281 185.278168,197.274185 
	C185.602325,198.751862 185.748520,200.654739 185.678131,202.853851 
z"/>
<path fill="#EDEDE3" opacity="1.000000" stroke="none" 
	d="
M183.777786,143.172455 
	C184.304611,143.530380 184.572128,144.074677 185.018585,144.872177 
	C185.197510,145.125381 185.144943,145.617035 185.004486,145.820618 
	C184.415512,145.135757 183.966995,144.247299 183.777786,143.172455 
z"/>
<path fill="#71705C" opacity="1.000000" stroke="none" 
	d="
M185.626404,223.875763 
	C185.277023,222.656906 185.158768,221.171890 185.225525,219.272003 
	C185.559525,220.441299 185.708527,222.025436 185.626404,223.875763 
z"/>
<path fill="#70715C" opacity="1.000000" stroke="none" 
	d="
M4.459470,35.130238 
	C4.793593,36.346222 4.899732,37.829651 4.825372,39.727596 
	C4.507078,38.560638 4.369281,36.979156 4.459470,35.130238 
z"/>
<path fill="#71705C" opacity="1.000000" stroke="none" 
	d="
M181.435455,134.949799 
	C181.156845,134.432434 181.064423,133.996338 181.042130,133.233185 
	C181.653275,133.518036 182.194260,134.129974 182.531647,135.043213 
	C182.023224,135.396210 181.787750,135.291733 181.435455,134.949799 
z"/>
<path fill="#71705C" opacity="1.000000" stroke="none" 
	d="
M185.672577,176.894714 
	C185.338486,175.986481 185.219421,174.826416 185.280487,173.259064 
	C185.602936,174.115494 185.745270,175.379166 185.672577,176.894714 
z"/>
<path fill="#70715C" opacity="1.000000" stroke="none" 
	d="
M6.821486,122.688644 
	C7.337882,122.296097 7.895156,122.187691 8.843024,122.267982 
	C8.443199,122.628716 7.652782,122.800743 6.821486,122.688644 
z"/>
<path fill="#71705C" opacity="1.000000" stroke="none" 
	d="
M185.541077,151.889526 
	C185.183746,150.987991 185.048355,149.838272 185.085464,148.280853 
	C185.426315,149.129227 185.594681,150.385284 185.541077,151.889526 
z"/>
<path fill="#8B8E7A" opacity="1.000000" stroke="none" 
	d="
M68.141739,110.088379 
	C68.597542,110.582100 68.736298,111.154533 68.666641,111.857574 
	C68.247047,111.381157 68.035866,110.774132 68.141739,110.088379 
z"/>
<path fill="#70715C" opacity="1.000000" stroke="none" 
	d="
M4.312032,117.802544 
	C4.741090,118.331558 4.859169,118.870216 4.819248,119.801193 
	C4.441183,119.399727 4.221118,118.605965 4.312032,117.802544 
z"/>
<path fill="#EDEDE3" opacity="1.000000" stroke="none" 
	d="
M129.118835,221.197754 
	C129.462418,221.597824 129.611511,222.122253 129.558258,222.773453 
	C129.212051,222.374191 129.068192,221.848145 129.118835,221.197754 
z"/>
<path fill="#585830" opacity="1.000000" stroke="none" 
	d="
M67.958702,126.974670 
	C68.372368,127.566437 68.489182,128.209900 68.314743,129.044312 
	C67.902946,128.498978 67.782394,127.762672 67.958702,126.974670 
z"/>
<path fill="#8B8E7A" opacity="1.000000" stroke="none" 
	d="
M71.467850,225.014282 
	C71.964111,225.008636 72.328812,225.314331 72.854095,226.094925 
	C72.963028,226.760742 72.911377,226.951660 72.859726,227.142578 
	C72.351913,226.536926 71.844109,225.931259 71.467850,225.014282 
z"/>
<path fill="#EBECE3" opacity="1.000000" stroke="none" 
	d="
M72.979660,227.375061 
	C72.911377,226.951660 72.963028,226.760742 73.030792,226.273544 
	C73.593384,225.963043 74.139862,225.948822 74.686340,225.934601 
	C74.513077,226.516663 74.339806,227.098724 74.042419,227.940460 
	C73.645393,228.002579 73.372490,227.805054 72.979660,227.375061 
z"/>
<path fill="#71705C" opacity="1.000000" stroke="none" 
	d="
M185.651123,164.924255 
	C185.304718,164.309723 185.173874,163.476547 185.222321,162.250397 
	C185.556625,162.806824 185.711655,163.756195 185.651123,164.924255 
z"/>
<path fill="#8B8E7A" opacity="1.000000" stroke="none" 
	d="
M69.395447,219.110336 
	C69.825928,219.555923 70.127510,220.328217 70.339050,221.410919 
	C69.921516,220.959900 69.594032,220.198456 69.395447,219.110336 
z"/>
<path fill="#78796B" opacity="1.000000" stroke="none" 
	d="
M124.582748,214.948196 
	C124.261162,214.309509 124.168274,213.462051 124.265297,212.222595 
	C124.573952,212.800201 124.692703,213.769821 124.582748,214.948196 
z"/>
<path fill="#8B8E7A" opacity="1.000000" stroke="none" 
	d="
M68.288269,211.132690 
	C68.646179,211.723190 68.828400,212.636795 68.845589,213.874939 
	C68.491226,213.284912 68.301895,212.370361 68.288269,211.132690 
z"/>
<path fill="#78796B" opacity="1.000000" stroke="none" 
	d="
M118.101761,13.611469 
	C117.455193,13.432800 116.846710,12.935746 116.243057,12.128990 
	C116.878532,12.310553 117.509201,12.801818 118.101761,13.611469 
z"/>
<path fill="#FEFEFD" opacity="1.000000" stroke="none" 
	d="
M109.918076,235.205414 
	C110.282623,235.262619 110.570488,235.534241 110.951088,235.993103 
	C110.905960,236.379227 110.768097,236.578110 110.279480,236.869904 
	C109.899612,236.448471 109.870506,235.934143 109.918076,235.205414 
z"/>
<path fill="#78796B" opacity="1.000000" stroke="none" 
	d="
M111.746666,7.846164 
	C111.273384,7.957079 110.707985,7.764137 110.089554,7.262350 
	C110.575874,7.149772 111.115204,7.346040 111.746666,7.846164 
z"/>
<path fill="#78796B" opacity="1.000000" stroke="none" 
	d="
M81.085770,7.533691 
	C81.030136,8.035496 80.691513,8.434079 80.081451,8.798354 
	C80.140923,8.319521 80.471855,7.874995 81.085770,7.533691 
z"/>
<path fill="#71705C" opacity="1.000000" stroke="none" 
	d="
M185.655594,169.971619 
	C185.331131,169.628632 185.211914,169.109238 185.270462,168.219940 
	C185.585770,168.498413 185.723312,169.146820 185.655594,169.971619 
z"/>
<path fill="#8B8E7A" opacity="1.000000" stroke="none" 
	d="
M68.618027,216.044327 
	C68.988129,216.301834 69.170403,216.751495 69.234589,217.555145 
	C68.887726,217.351578 68.658958,216.794037 68.618027,216.044327 
z"/>
<path fill="#71705C" opacity="1.000000" stroke="none" 
	d="
M180.143173,131.079910 
	C179.679138,130.947235 179.457336,130.857849 179.174271,130.415039 
	C179.537140,130.415466 179.961273,130.769348 180.143173,131.079910 
z"/>
<path fill="#8B8E7A" opacity="1.000000" stroke="none" 
	d="
M70.624435,223.106873 
	C71.012634,223.199783 71.259476,223.571014 71.432701,224.165863 
	C71.067085,224.054703 70.775078,223.719955 70.624435,223.106873 
z"/>
<path fill="#71705C" opacity="1.000000" stroke="none" 
	d="
M185.050812,240.905792 
	C184.832672,240.638412 184.864502,240.434067 185.148712,240.049042 
	C185.367676,240.235199 185.334244,240.601990 185.050812,240.905792 
z"/>
<path fill="#EDEDE3" opacity="1.000000" stroke="none" 
	d="
M129.440262,240.199570 
	C129.732315,240.018082 129.883224,240.111191 129.988815,240.440796 
	C130.003616,240.579758 129.623047,240.663345 129.623047,240.663345 
	C129.623047,240.663345 129.359253,240.376633 129.440262,240.199570 
z"/>
<path fill="#EBECE3" opacity="1.000000" stroke="none" 
	d="
M101.909912,240.224762 
	C101.955490,240.039062 102.119476,239.974304 102.547653,239.919800 
	C102.550659,240.068619 102.289490,240.207169 101.909912,240.224762 
z"/>
<path fill="#585830" opacity="1.000000" stroke="none" 
	d="
M67.691360,207.945709 
	C68.129211,208.041428 68.296280,208.192337 68.333214,208.655487 
	C67.942253,208.645462 67.681427,208.323181 67.691360,207.945709 
z"/>
<path fill="#78796B" opacity="1.000000" stroke="none" 
	d="
M75.833023,12.163950 
	C75.966873,12.434039 75.836899,12.757264 75.431686,13.112606 
	C75.294044,12.835509 75.431625,12.526298 75.833023,12.163950 
z"/>
<path fill="#EDEDE3" opacity="1.000000" stroke="none" 
	d="
M138.780319,126.913971 
	C138.685242,126.971405 138.793686,126.901291 138.817810,126.924744 
	C138.841919,126.948196 138.875397,126.856537 138.780319,126.913971 
z"/>
<path fill="#8B8E7A" opacity="1.000000" stroke="none" 
	d="
M72.998596,15.521556 
	C73.207214,15.738972 73.074249,15.978103 73.016373,16.016361 
	C72.820847,15.910278 72.659790,15.779657 72.561600,15.612177 
	C72.536270,15.568981 72.708496,15.409957 72.998596,15.521556 
z"/>
<path fill="#70715C" opacity="1.000000" stroke="none" 
	d="
M5.011860,122.067558 
	C4.893234,122.313202 4.772460,122.492386 4.651683,122.671562 
	C4.582212,122.430130 4.512743,122.188690 4.660497,121.966064 
	C4.877720,121.984879 5.009712,122.001099 5.011860,122.067558 
z"/>
<path fill="#8B8E7A" opacity="1.000000" stroke="none" 
	d="
M68.530357,30.004915 
	C68.827766,30.147785 68.910278,30.474878 68.806084,30.994696 
	C68.518074,30.854658 68.416771,30.521896 68.530357,30.004915 
z"/>
<path fill="#8B8E7A" opacity="1.000000" stroke="none" 
	d="
M68.944489,27.163502 
	C69.196869,27.312059 69.252716,27.483530 69.131073,27.859554 
	C68.813248,27.881926 68.647141,27.712334 68.548264,27.509899 
	C68.518562,27.449091 68.676155,27.296801 68.944489,27.163502 
z"/>
<path fill="#8B8E7A" opacity="1.000000" stroke="none" 
	d="
M68.728920,203.124329 
	C68.485504,203.019180 68.370354,202.688400 68.433357,202.142273 
	C68.693398,202.250839 68.775291,202.574783 68.728920,203.124329 
z"/>
<path fill="#EDEDE3" opacity="1.000000" stroke="none" 
	d="
M182.419312,138.061462 
	C183.166611,139.078156 183.582779,140.188019 183.971115,141.655777 
	C181.065262,141.813583 179.856888,140.810867 182.419312,138.061462 
z"/>
</svg>