<svg xmlns="http://www.w3.org/2000/svg" enable-background="new 0 0 64 64" viewBox="0 0 64 64" id="Management">
  <path fill="#ffffff" d="M28.4,31.9c-7.9,0-14.3-6.4-14.3-14.3S20.5,3.4,28.4,3.4s14.3,6.3,14.3,14.2S36.3,31.9,28.4,31.9z M28.4,5.3
			c-6.8,0-12.3,5.5-12.3,12.3s5.5,12.4,12.3,12.4s12.3-5.5,12.3-12.3S35.3,5.3,28.4,5.3z" class="color231f20 svgShape"></path>
  <path fill="#ffffff" d="M28.4,58.7c-0.1,0-2.5-0.1-5.8-0.4c-3-0.3-7.6-0.9-11.6-1.9c-3.8-1.1-8.2-3.5-9.2-5.2c-2-3.2,0-6.7,0.7-7.9
			c4.5-7.4,18.4-12,18.9-12.1l0.5-0.2l6.7,5.1l6.3-5.1l0.5,0.2c0.3,0.1,6.1,2,11.5,5.3l-1,1.6c-4.4-2.7-9.1-4.5-10.6-5.1l-5.6,4.5
			l3.5,10.4L29,54.6l-4.2-6.7l2.7-10.5l-6-4.6c-2.4,1.1-13.8,5.3-17.4,11.4c-1.5,2.5-1.7,4.4-0.8,5.9c0.7,1.1,4.3,3.4,8.2,4.5
			c3.9,1.1,8.3,1.7,11.3,1.8c3.3,0.3,5.6,0.4,5.6,0.4s6.3-0.2,12.7-1.4l0.3,1.8C35,58.5,28.5,58.7,28.4,58.7z M26.8,47.7l2.1,3.4
			l2.1-3.5l-2.4-7.2L26.8,47.7z M49.7,51.7c-2.5,0-4.6-2-4.6-4.6s2-4.6,4.6-4.6s4.6,2,4.6,4.6C54.2,49.7,52.2,51.7,49.7,51.7z
			 M49.7,44.5c-1.5,0-2.6,1.2-2.6,2.6c0,1.5,1.2,2.6,2.6,2.6c1.5,0,2.6-1.2,2.6-2.6C52.3,45.8,51.1,44.5,49.7,44.5z" class="color231f20 svgShape"></path>
  <path fill="#ffffff" d="M52.8,60.6H47l-0.9-2.6c-0.4-0.1-0.7-0.3-1.1-0.4l-2.6,1.4l-4.2-4.1l1.3-2.5c-0.2-0.3-0.3-0.7-0.5-1.1
			l-2.8-0.9v-5.8l2.6-0.9c0.1-0.4,0.3-0.7,0.4-1.1L37.8,40l4.1-4.2l2.5,1.3c0.3-0.2,0.7-0.3,1.1-0.5l0.9-2.8h5.8l0.9,2.6
			c0.4,0.1,0.7,0.3,1.1,0.4l2.6-1.4l4.1,4.1L59.6,42c0.2,0.3,0.3,0.7,0.5,1.1l2.8,0.9v5.8l-2.6,0.9c-0.1,0.4-0.3,0.7-0.4,1.1
			l1.4,2.6l-4,4.3l-2.5-1.3c-0.4,0.2-0.7,0.3-1.1,0.5L52.8,60.6z M48.3,58.7h3.1l0.8-2.4l0.5-0.2c0.6-0.2,1.1-0.4,1.7-0.7l0.5-0.3
			l2.1,1.1l2.1-2.1l-1.2-2.2l0.2-0.4c0.3-0.6,0.5-1.1,0.7-1.7l0.1-0.5l2.3-0.8v-3.1l-2.4-0.8l-0.2-0.5c-0.2-0.6-0.4-1.1-0.7-1.7
			L57.6,42l1.1-2.1l-2.1-2L54.3,39l-0.5-0.2c-0.6-0.3-1.1-0.5-1.7-0.7L51.7,38l-0.8-2.3h-3.1l-0.8,2.4l-0.5,0.2
			c-0.6,0.2-1.2,0.5-1.7,0.7l-0.3,0.3l-2.1-1.2l-2.1,2.1l1.2,2.2l-0.2,0.4c-0.3,0.5-0.5,1.1-0.7,1.7L40.5,45l-2.3,0.8v3.1l2.4,0.8
			l0.2,0.5c0.2,0.6,0.5,1.2,0.7,1.7l0.3,0.5l-1.2,2.1l2.1,2.1l2.2-1.2l0.4,0.2c0.5,0.3,1.1,0.5,1.7,0.7l0.5,0.1L48.3,58.7z
			 M49.7,51.7c-2.5,0-4.6-2-4.6-4.6s2-4.6,4.6-4.6s4.6,2,4.6,4.6C54.2,49.7,52.2,51.7,49.7,51.7z M49.7,44.5c-1.5,0-2.6,1.2-2.6,2.6
			c0,1.5,1.2,2.6,2.6,2.6c1.5,0,2.6-1.2,2.6-2.6C52.3,45.8,51.1,44.5,49.7,44.5z" class="color231f20 svgShape"></path>
</svg>
