<svg xmlns="http://www.w3.org/2000/svg" viewBox="0 0 64 64" id="Strategy">
  <path d="M61 2H3a1 1 0 0 0-1 1v42a1 1 0 0 0 1 1h15v15a1 1 0 0 0 1 1h14a1 1 0 0 0 1-1V50.391L38.053 46H61a1 1 0 0 0 1-1V3a1 1 0 0 0-1-1ZM32.266 49.321A1 1 0 0 0 32 50v10H20V45.849A1.851 1.851 0 0 1 21.849 44H32a1.006 1.006 0 0 0 .555-.168L41.3 38h1.413ZM22 38a4 4 0 1 1 4 4 4 4 0 0 1-4-4Zm38 6H39.9l5.835-6.321a.974.974 0 0 0 .174-.27c.012-.025.016-.053.026-.08a1 1 0 0 0 .055-.272c0-.02.011-.037.011-.057v-2.387a11.831 11.831 0 0 0 3.093-1.277l1.685 1.685a1 1 0 0 0 1.414 0l2.829-2.829a1 1 0 0 0 0-1.414l-1.685-1.685A11.831 11.831 0 0 0 54.613 26H57a1 1 0 0 0 1-1v-4a1 1 0 0 0-1-1h-2.387a11.831 11.831 0 0 0-1.277-3.093l1.685-1.685a1 1 0 0 0 0-1.414l-2.829-2.829a1 1 0 0 0-1.414 0l-1.685 1.685A11.831 11.831 0 0 0 46 11.387V9a1 1 0 0 0-1-1h-4a1 1 0 0 0-1 1v2.387a11.831 11.831 0 0 0-3.093 1.277l-1.685-1.685a1 1 0 0 0-1.414 0l-2.829 2.829 1.415 1.414 2.121-2.122 1.547 1.545a1 1 0 0 0 1.274.117 9.881 9.881 0 0 1 3.845-1.589A1 1 0 0 0 42 12.19V10h2v2.19a1 1 0 0 0 .819.984 9.881 9.881 0 0 1 3.845 1.589 1 1 0 0 0 1.274-.117l1.547-1.546 1.415 1.415-1.545 1.547a1 1 0 0 0-.117 1.274 9.881 9.881 0 0 1 1.589 3.845 1 1 0 0 0 .983.819H56v2h-2.19a1 1 0 0 0-.984.819 9.881 9.881 0 0 1-1.589 3.845 1 1 0 0 0 .117 1.274l1.546 1.547-1.415 1.415-1.547-1.545a1 1 0 0 0-1.274-.117 9.881 9.881 0 0 1-3.845 1.589 1 1 0 0 0-.819.983V36h-2v-2.19a1 1 0 0 0-.819-.984 9.881 9.881 0 0 1-3.845-1.589 1 1 0 0 0-1.274.117L34.515 32.9l-2.121-2.121-1.415 1.414 2.829 2.829a1 1 0 0 0 1.414 0l1.685-1.685A11.831 11.831 0 0 0 40 34.613v1.852L31.7 42h-1.24a6 6 0 1 0-8.894.029A3.827 3.827 0 0 0 18.494 44H4V4h56Z" fill="#5f604b" class="color000000 svgShape"></path>
  <path d="m14.539 15.953 9.508 9.508a2.99 2.99 0 0 0 5.9.079l6.544-4.907a2.983 2.983 0 0 0 4.682.426l2.263 3.394a2.99 2.99 0 1 0 2.14-.395l-3.61-5.415a2.988 2.988 0 0 0-5.909-.183l-6.544 4.907a2.98 2.98 0 0 0-4.9-.166L16.8 15.385a3 3 0 1 0-2.26.568ZM45 26a1 1 0 1 1-1 1 1 1 0 0 1 1-1Zm-6-8a1 1 0 1 1-1 1 1 1 0 0 1 1-1Zm-12 6a1 1 0 1 1-1 1 1 1 0 0 1 1-1ZM15 12a1 1 0 1 1-1 1 1 1 0 0 1 1-1Z" fill="#5f604b" class="color000000 svgShape"></path>
  <path d="m24.707 17.707 1.414-1.414 1.414 1.414 1.414-1.414-1.414-1.414 1.414-1.414-1.414-1.414-1.414 1.414-1.414-1.414-1.414 1.414 1.414 1.414-1.414 1.414 1.414 1.414zM37.535 24.293l-1.414 1.414-1.414-1.414-1.414 1.414 1.414 1.414-1.414 1.414 1.414 1.414 1.414-1.414 1.414 1.414 1.414-1.414-1.414-1.414 1.414-1.414-1.414-1.414zM12.465 27.707l1.414-1.414 1.414 1.414 1.414-1.414-1.414-1.414 1.414-1.414-1.414-1.414-1.414 1.414-1.414-1.414-1.414 1.414 1.414 1.414-1.414 1.414 1.414 1.414z" fill="#5f604b" class="color000000 svgShape"></path>
</svg>
